<svg width="67" height="56" viewBox="0 0 67 56" fill="none" xmlns="http://www.w3.org/2000/svg">
<path d="M11.5153 36.0686C11.5153 36.0686 4.08513 30.004 2.62263 27.4655C-1.95237 19.554 3.61107 6.85091 13.4976 4.73633" stroke="white" stroke-width="2" stroke-linecap="round" stroke-linejoin="round"/>
<path d="M36.1611 35.0686L49.5882 42.3822" stroke="white" stroke-width="2" stroke-linecap="round" stroke-linejoin="round"/>
<path d="M31.1196 40.0686L44.6613 46.8374" stroke="white" stroke-width="2" stroke-linecap="round" stroke-linejoin="round"/>
<path d="M56.4423 37.9124L51.1298 33.3728L42.5059 28.8572" stroke="white" stroke-width="2" stroke-linecap="round" stroke-linejoin="round"/>
<path d="M34.8903 48.9228C43.8215 54.6165 46.1299 48.615 44.6684 46.8457C47.5163 48.5384 51.1361 46.3072 49.5965 42.3842C53.6007 44.3082 56.9111 41.3072 56.4497 37.9228C59.9142 38.5384 62.0694 35.6915 61.0694 32.3061C68.0705 27.5301 66.3205 12.4832 60.9665 5.88946C51.2926 4.36966 49.5082 3.42904 39.1124 1.78216L25.0186 1.13789C22.9301 0.586852 20.7676 1.73196 20.0405 3.77643C19.2573 6.70977 18.2936 8.95456 16.2916 12.5035C15.5326 14.3639 16.4007 16.4921 18.2416 17.2827C20.2291 17.7792 21.1374 16.8806 22.8874 15.5264C25.1738 13.3369 25.6249 12.4056 26.8509 10.7608L41.0593 17.2233L54.3093 24.6858C56.928 26.4546 59.5301 30.7733 61.0905 32.3118" stroke="white" stroke-width="2" stroke-linecap="round" stroke-linejoin="round"/>
<path d="M28.661 46.6936C29.8162 45.1551 31.438 44.9092 32.9776 45.7558C34.4412 46.6022 35.5183 48.2162 34.5172 49.9881L32.6693 53.2183C31.5141 54.7568 29.3589 54.9871 27.8964 53.9107C26.611 52.9477 26.238 51.2878 26.7755 49.9149C28.661 46.692 26.7755 49.9149 28.661 46.692V46.6936Z" stroke="white" stroke-width="2" stroke-linecap="round" stroke-linejoin="round"/>
<path d="M22.7547 43.3916C23.9099 41.853 25.5318 41.6072 27.0714 42.4537C28.5349 43.3001 29.612 44.9142 28.611 46.686L26.763 49.9162C25.6078 51.4548 23.4526 51.685 21.9901 50.6086C20.7047 49.6456 20.3318 47.9857 20.8693 46.6128C22.7547 43.3899 20.8693 46.6128 22.7547 43.3899V43.3916Z" stroke="white" stroke-width="2" stroke-linecap="round" stroke-linejoin="round"/>
<path d="M16.8592 40.0999C18.0144 38.5613 19.6363 38.3155 21.1759 39.1621C22.6394 40.0084 23.7165 41.6225 22.7155 43.3943L20.8675 46.6246C19.7123 48.1631 17.5571 48.3933 16.0946 47.317C14.8092 46.3539 14.4363 44.694 14.9738 43.3211C16.8592 40.0982 14.9738 43.3211 16.8592 40.0982V40.0999Z" stroke="white" stroke-width="2" stroke-linecap="round" stroke-linejoin="round"/>
<path d="M10.9735 36.7978C12.1287 35.2592 13.7505 35.0134 15.2901 35.86C16.7537 36.7063 17.8308 38.3204 16.8297 40.0923L14.9818 43.3225C13.8266 44.861 11.6714 45.0912 10.2089 44.0149C8.92346 43.0518 8.55054 41.3919 9.08804 40.019C10.9735 36.7961 9.08804 40.019 10.9735 36.7961V36.7978Z" stroke="white" stroke-width="2" stroke-linecap="round" stroke-linejoin="round"/>
</svg>
